<svg width="30" height="30" viewBox="0 0 30 30" fill="none" xmlns="http://www.w3.org/2000/svg">
<path opacity="0.5" d="M12.7778 24H17.2222C20.3433 24 21.9038 24 23.0248 23.2646C23.51 22.9462 23.9267 22.5371 24.251 22.0607C25 20.9601 25 19.4279 25 16.3636C25 13.2994 25 11.7672 24.251 10.6666C23.9267 10.1901 23.51 9.78104 23.0248 9.46268C22.3044 8.99013 21.4027 8.82123 20.022 8.76086C19.3631 8.76086 18.7959 8.27068 18.6667 7.63636C18.4728 6.68489 17.6219 6 16.6337 6H13.3663C12.3781 6 11.5272 6.68489 11.3333 7.63636C11.2041 8.27068 10.6369 8.76086 9.978 8.76086C8.59733 8.82123 7.69555 8.99013 6.97524 9.46268C6.48995 9.78104 6.07328 10.1901 5.74902 10.6666C5 11.7672 5 13.2994 5 16.3636C5 19.4279 5 20.9601 5.74902 22.0607C6.07328 22.5371 6.48995 22.9462 6.97524 23.2646C8.09624 24 9.65675 24 12.7778 24Z" fill="#FC822C"/>
<path d="M17.5197 11.8496C17.9339 11.8496 18.2697 12.1854 18.2697 12.5996V14.2796C18.2697 14.6342 18.0213 14.9404 17.6743 15.0135L16.1546 15.3335C15.7492 15.4189 15.3515 15.1595 15.2661 14.7542C15.1928 14.4061 15.3737 14.0637 15.6828 13.9198C14.8617 13.6788 13.9379 13.8822 13.2902 14.5299C12.346 15.4741 12.346 17.0049 13.2902 17.9491C14.2344 18.8933 15.7652 18.8933 16.7094 17.9491C17.112 17.5465 17.3422 17.0392 17.4019 16.5148C17.4487 16.1033 17.8203 15.8076 18.2319 15.8544C18.6434 15.9012 18.9391 16.2728 18.8923 16.6844C18.7957 17.5337 18.421 18.3588 17.77 19.0098C16.2401 20.5397 13.7595 20.5397 12.2295 19.0098C10.6995 17.4798 10.6995 14.9992 12.2295 13.4692C13.4581 12.2407 15.2996 11.9986 16.7697 12.7432V12.5996C16.7697 12.1854 17.1055 11.8496 17.5197 11.8496Z" fill="#FC822C"/>
</svg>
