<svg width="80" height="80" viewBox="0 0 80 80" fill="none" xmlns="http://www.w3.org/2000/svg">
<rect width="80" height="80" rx="40" fill="white"/>
<rect width="80" height="80" rx="40" fill="#FEE6D5"/>
<circle cx="40.0001" cy="26.0003" r="9.33333" fill="#FC822C"/>
<ellipse opacity="0.5" cx="40.0001" cy="51.6663" rx="16.3333" ry="9.33333" fill="#FC822C"/>
<path opacity="0.5" d="M37.7778 49H42.2222C45.3433 49 46.9038 49 48.0248 48.2646C48.51 47.9462 48.9267 47.5371 49.251 47.0607C50 45.9601 50 44.4279 50 41.3636C50 38.2994 50 36.7672 49.251 35.6666C48.9267 35.1901 48.51 34.781 48.0248 34.4627C47.3044 33.9901 46.4027 33.8212 45.022 33.7609C44.3631 33.7609 43.7959 33.2707 43.6667 32.6364C43.4728 31.6849 42.6219 31 41.6337 31H38.3663C37.3781 31 36.5272 31.6849 36.3333 32.6364C36.2041 33.2707 35.6369 33.7609 34.978 33.7609C33.5973 33.8212 32.6956 33.9901 31.9752 34.4627C31.49 34.781 31.0733 35.1901 30.749 35.6666C30 36.7672 30 38.2994 30 41.3636C30 44.4279 30 45.9601 30.749 47.0607C31.0733 47.5371 31.49 47.9462 31.9752 48.2646C33.0962 49 34.6568 49 37.7778 49Z" fill="white"/>
<path d="M42.5197 36.8496C42.9339 36.8496 43.2697 37.1854 43.2697 37.5996V39.2796C43.2697 39.6342 43.0213 39.9404 42.6743 40.0135L41.1546 40.3335C40.7492 40.4189 40.3515 40.1595 40.2661 39.7542C40.1928 39.4061 40.3737 39.0637 40.6828 38.9198C39.8617 38.6788 38.9379 38.8822 38.2902 39.5299C37.346 40.4741 37.346 42.0049 38.2902 42.9491C39.2344 43.8933 40.7652 43.8933 41.7094 42.9491C42.112 42.5465 42.3422 42.0392 42.4019 41.5148C42.4487 41.1033 42.8203 40.8076 43.2319 40.8544C43.6434 40.9012 43.9391 41.2728 43.8923 41.6844C43.7957 42.5337 43.421 43.3588 42.77 44.0098C41.2401 45.5397 38.7595 45.5397 37.2295 44.0098C35.6995 42.4798 35.6995 39.9992 37.2295 38.4692C38.4581 37.2407 40.2996 36.9986 41.7697 37.7432V37.5996C41.7697 37.1854 42.1055 36.8496 42.5197 36.8496Z" fill="white"/>
</svg>
