<svg width="42" height="12" viewBox="0 0 42 12" fill="none" xmlns="http://www.w3.org/2000/svg">
<path d="M0.364 11L3.976 1.2H5.6L9.184 11H7.616L6.776 8.606H2.772L1.932 11H0.364ZM3.192 7.43H6.356L4.774 2.964L3.192 7.43ZM13.3032 11.168C12.6312 11.168 12.0385 11.0093 11.5252 10.692C11.0118 10.3747 10.6105 9.94067 10.3212 9.39C10.0318 8.83933 9.88717 8.214 9.88717 7.514C9.88717 6.814 10.0318 6.19333 10.3212 5.652C10.6105 5.10133 11.0118 4.672 11.5252 4.364C12.0478 4.04667 12.6452 3.888 13.3172 3.888C13.8678 3.888 14.3485 3.99533 14.7592 4.21C15.1792 4.42467 15.5058 4.728 15.7392 5.12V0.92H17.2232V11H15.8932L15.7392 9.922C15.5152 10.2487 15.2072 10.538 14.8152 10.79C14.4232 11.042 13.9192 11.168 13.3032 11.168ZM13.5692 9.88C14.2038 9.88 14.7218 9.66067 15.1232 9.222C15.5338 8.78333 15.7392 8.21867 15.7392 7.528C15.7392 6.828 15.5338 6.26333 15.1232 5.834C14.7218 5.39533 14.2038 5.176 13.5692 5.176C12.9345 5.176 12.4118 5.39533 12.0012 5.834C11.5905 6.26333 11.3852 6.828 11.3852 7.528C11.3852 7.98533 11.4785 8.39133 11.6652 8.746C11.8518 9.10067 12.1085 9.38067 12.4352 9.586C12.7712 9.782 13.1492 9.88 13.5692 9.88ZM19.0943 11V4.056H20.4103L20.5363 5.036C20.7603 4.68133 21.0543 4.40133 21.4183 4.196C21.7916 3.99067 22.2209 3.888 22.7063 3.888C23.8076 3.888 24.5729 4.322 25.0023 5.19C25.2543 4.78867 25.5903 4.47133 26.0103 4.238C26.4396 4.00467 26.9016 3.888 27.3963 3.888C28.2643 3.888 28.9456 4.14933 29.4403 4.672C29.9349 5.19467 30.1823 5.974 30.1823 7.01V11H28.6983V7.164C28.6983 5.82 28.1849 5.148 27.1583 5.148C26.6356 5.148 26.2063 5.344 25.8702 5.736C25.5436 6.128 25.3803 6.688 25.3803 7.416V11H23.8963V7.164C23.8963 5.82 23.3783 5.148 22.3423 5.148C21.8289 5.148 21.4043 5.344 21.0683 5.736C20.7416 6.128 20.5783 6.688 20.5783 7.416V11H19.0943ZM32.7585 2.74C32.4785 2.74 32.2451 2.656 32.0585 2.488C31.8811 2.31067 31.7925 2.09133 31.7925 1.83C31.7925 1.56867 31.8811 1.354 32.0585 1.186C32.2451 1.00867 32.4785 0.92 32.7585 0.92C33.0385 0.92 33.2671 1.00867 33.4445 1.186C33.6311 1.354 33.7245 1.56867 33.7245 1.83C33.7245 2.09133 33.6311 2.31067 33.4445 2.488C33.2671 2.656 33.0385 2.74 32.7585 2.74ZM32.0165 11V4.056H33.5005V11H32.0165ZM35.4595 11V4.056H36.7755L36.8875 5.274C37.1022 4.84467 37.4148 4.50867 37.8255 4.266C38.2455 4.014 38.7262 3.888 39.2675 3.888C40.1075 3.888 40.7655 4.14933 41.2415 4.672C41.7268 5.19467 41.9695 5.974 41.9695 7.01V11H40.4995V7.164C40.4995 5.82 39.9488 5.148 38.8475 5.148C38.2968 5.148 37.8395 5.344 37.4755 5.736C37.1208 6.128 36.9435 6.688 36.9435 7.416V11H35.4595Z" fill="#FC822C"/>
</svg>
