<svg width="20" height="20" viewBox="0 0 20 20" fill="none" xmlns="http://www.w3.org/2000/svg">
<path opacity="0.5" d="M9.73768 16.6662H10.2623C12.0673 16.6662 12.9698 16.6662 13.5566 16.0908C14.1434 15.5153 14.2034 14.5713 14.3235 12.6834L14.4965 9.96303C14.5616 8.93866 14.5942 8.42648 14.2998 8.10191C14.0055 7.77734 13.5083 7.77734 12.5141 7.77734H7.48587C6.49164 7.77734 5.99453 7.77734 5.70015 8.10191C5.40578 8.42648 5.43835 8.93866 5.5035 9.96304L5.6765 12.6834C5.79657 14.5713 5.8566 15.5153 6.4434 16.0908C7.03019 16.6662 7.93269 16.6662 9.73768 16.6662Z" fill="#B40101"/>
<path d="M4 6.34888C4 6.08589 4.21781 5.87269 4.48648 5.87269H7.67858C7.68292 5.31187 7.7437 4.54304 8.30025 4.0108C8.73824 3.59193 9.33872 3.33301 9.99999 3.33301C10.6613 3.33301 11.2617 3.59193 11.6997 4.01079C12.2563 4.54303 12.3171 5.31187 12.3214 5.87269H15.5135C15.7822 5.87269 16 6.08589 16 6.34888C16 6.61187 15.7822 6.82507 15.5135 6.82507H4.48648C4.21781 6.82507 4 6.61187 4 6.34888Z" fill="#B40101"/>
</svg>
