<svg width="20" height="20" viewBox="0 0 20 20" fill="none" xmlns="http://www.w3.org/2000/svg">
<path opacity="0.5" d="M15.8989 7.80862C16.9227 6.78482 16.9227 5.12491 15.8989 4.1011C14.8751 3.0773 13.2151 3.0773 12.1913 4.1011L11.6 4.69246C11.6081 4.71692 11.6165 4.74171 11.6252 4.76682C11.8419 5.39158 12.2509 6.21059 13.0202 6.97993C13.7896 7.74928 14.6086 8.15824 15.2334 8.375C15.2584 8.38367 15.283 8.39203 15.3074 8.40009L15.8989 7.80862Z" fill="#FC822C"/>
<path d="M11.6258 4.66699L11.6003 4.69245C11.6084 4.71691 11.6168 4.7417 11.6255 4.76681C11.8423 5.39157 12.2512 6.21058 13.0206 6.97992C13.7899 7.74927 14.6089 8.15823 15.2337 8.37499C15.2585 8.38359 15.2829 8.39188 15.3071 8.39988L9.60011 14.1068C9.21536 14.4916 9.02294 14.684 8.81082 14.8495C8.56059 15.0446 8.28984 15.212 8.00336 15.3485C7.76051 15.4642 7.50238 15.5503 6.98616 15.7224L4.26393 16.6298C4.00989 16.7144 3.72981 16.6483 3.54046 16.459C3.35111 16.2696 3.28499 15.9895 3.36967 15.7355L4.27708 13.0133C4.44916 12.497 4.5352 12.2389 4.65094 11.9961C4.78746 11.7096 4.9548 11.4388 5.14997 11.1886C5.31542 10.9765 5.50781 10.7841 5.89253 10.3994L11.6258 4.66699Z" fill="#FC822C"/>
</svg>
