<svg width="20" height="20" viewBox="0 0 20 20" fill="none" xmlns="http://www.w3.org/2000/svg">
<path opacity="0.5" d="M16 9.39802V12.7269C16 14.7913 16 15.8235 15.5106 16.2745C15.2772 16.4896 14.9826 16.6248 14.6687 16.6607C14.0107 16.736 13.2422 16.0563 11.7052 14.6969C11.0259 14.096 10.6862 13.7956 10.2931 13.7164C10.0996 13.6774 9.90038 13.6774 9.70685 13.7164C9.31383 13.7956 8.97415 14.096 8.29477 14.6969C6.75782 16.0563 5.98935 16.736 5.33128 16.6607C5.01743 16.6248 4.72281 16.4896 4.4894 16.2745C4 15.8235 4 14.7913 4 12.7269V9.39802C4 6.53895 4 5.10941 4.87868 4.22121C5.75736 3.33301 7.17157 3.33301 10 3.33301C12.8284 3.33301 14.2426 3.33301 15.1213 4.22121C16 5.10941 16 6.53895 16 9.39802Z" fill="#0128B4"/>
<path d="M8 5.5C7.72386 5.5 7.5 5.72386 7.5 6C7.5 6.27614 7.72386 6.5 8 6.5H12C12.2761 6.5 12.5 6.27614 12.5 6C12.5 5.72386 12.2761 5.5 12 5.5H8Z" fill="#0128B4"/>
</svg>
