<svg width="30" height="30" viewBox="0 0 30 30" fill="none" xmlns="http://www.w3.org/2000/svg">
<path opacity="0.5" fill-rule="evenodd" clip-rule="evenodd" d="M6.46447 23.5354C7.92893 24.9998 10.286 24.9998 15 24.9998C16.0687 24.9998 17.0163 24.9998 17.8597 24.9828C20.7369 24.9246 22.4031 24.6678 23.5355 23.5354C24.849 22.2219 24.986 20.1905 25 16.3845L24.0266 16.2497C21.1828 15.8559 18.5805 17.3343 17.2554 19.5626C15.5459 15.2376 11.0284 12.2881 5.98073 13.0129L5.00402 13.1537C5 13.7255 5 14.3396 5 14.9998C5 19.7139 5 22.0709 6.46447 23.5354Z" fill="#FC822C"/>
<path fill-rule="evenodd" clip-rule="evenodd" d="M14.9426 4.25H15.0574C17.3658 4.24999 19.1748 4.24998 20.5863 4.43975C22.031 4.63399 23.1711 5.03933 24.0659 5.93414C24.9607 6.82895 25.366 7.96897 25.5603 9.41371C25.75 10.8252 25.75 12.6342 25.75 14.9426V15.0309C25.75 16.9397 25.75 18.5023 25.6463 19.7745C25.5422 21.0531 25.3287 22.1214 24.8509 23.0087C24.6401 23.4001 24.3812 23.7506 24.0659 24.0659C23.1711 24.9607 22.031 25.366 20.5863 25.5603C19.1748 25.75 17.3658 25.75 15.0574 25.75H14.9426C12.6342 25.75 10.8252 25.75 9.41371 25.5603C7.96897 25.366 6.82895 24.9607 5.93414 24.0659C5.14086 23.2726 4.7312 22.2852 4.51335 21.0604C4.29935 19.8573 4.2602 18.3603 4.25207 16.5015C4.25 16.0287 4.25 15.5286 4.25 15.001L4.25 14.9426C4.24999 12.6342 4.24998 10.8252 4.43975 9.41371C4.63399 7.96897 5.03933 6.82895 5.93414 5.93414C6.82895 5.03933 7.96897 4.63399 9.41371 4.43975C10.8252 4.24998 12.6342 4.24999 14.9426 4.25ZM9.61358 5.92637C8.33517 6.09825 7.56445 6.42514 6.9948 6.9948C6.42514 7.56445 6.09825 8.33517 5.92637 9.61358C5.75159 10.9136 5.75 12.6218 5.75 15C5.75 15.5287 5.75 16.0257 5.75205 16.4949C5.76025 18.369 5.80214 19.7406 5.99017 20.7978C6.17436 21.8333 6.48774 22.4981 6.9948 23.0052C7.56445 23.5749 8.33517 23.9018 9.61358 24.0736C10.9136 24.2484 12.6218 24.25 15 24.25C17.3782 24.25 19.0864 24.2484 20.3864 24.0736C21.6648 23.9018 22.4355 23.5749 23.0052 23.0052C23.2151 22.7953 23.3872 22.5631 23.5302 22.2976C23.8619 21.6816 24.0531 20.8578 24.1513 19.6527C24.2494 18.4482 24.25 16.9459 24.25 15C24.25 12.6218 24.2484 10.9136 24.0736 9.61358C23.9018 8.33517 23.5749 7.56445 23.0052 6.9948C22.4355 6.42514 21.6648 6.09825 20.3864 5.92637C19.0864 5.75159 17.3782 5.75 15 5.75C12.6218 5.75 10.9136 5.75159 9.61358 5.92637Z" fill="#FC822C"/>
<path d="M21 11C21 12.1046 20.1046 13 19 13C17.8954 13 17 12.1046 17 11C17 9.89543 17.8954 9 19 9C20.1046 9 21 9.89543 21 11Z" fill="#FC822C"/>
</svg>
