<svg width="20" height="20" viewBox="0 0 20 20" fill="none" xmlns="http://www.w3.org/2000/svg">
<path opacity="0.5" d="M9.73768 16.6667H10.2623C12.0673 16.6667 12.9698 16.6667 13.5566 16.0912C14.1434 15.5158 14.2034 14.5718 14.3235 12.6839L14.4965 9.96352C14.5616 8.93915 14.5942 8.42696 14.2998 8.1024C14.0055 7.77783 13.5083 7.77783 12.5141 7.77783H7.48587C6.49164 7.77783 5.99453 7.77783 5.70015 8.1024C5.40578 8.42696 5.43835 8.93915 5.5035 9.96352L5.6765 12.6839C5.79657 14.5718 5.8566 15.5158 6.4434 16.0912C7.03019 16.6667 7.93269 16.6667 9.73768 16.6667Z" fill="#FC822C"/>
<path d="M4 6.34912C4 6.08613 4.21781 5.87293 4.48648 5.87293H7.67858C7.68292 5.31212 7.7437 4.54328 8.30025 4.01104C8.73824 3.59218 9.33872 3.33325 9.99999 3.33325C10.6613 3.33325 11.2617 3.59218 11.6997 4.01104C12.2563 4.54328 12.3171 5.31212 12.3214 5.87293H15.5135C15.7822 5.87293 16 6.08613 16 6.34912C16 6.61212 15.7822 6.82532 15.5135 6.82532H4.48648C4.21781 6.82532 4 6.61212 4 6.34912Z" fill="#FC822C"/>
</svg>
