<svg width="40" height="40" viewBox="0 0 40 40" fill="none" xmlns="http://www.w3.org/2000/svg">
<circle opacity="0.1" cx="20" cy="20" r="20" fill="#FC822C"/>
<path d="M23.9327 12.7738C23.7017 12.5428 23.3272 12.5428 23.0963 12.7738C22.8653 13.0048 22.8653 13.3793 23.0963 13.6102L23.825 14.3389L22.5226 15.6413L21.8575 14.9763C21.2632 14.3819 20.966 14.0847 20.6281 13.9617C20.2698 13.8313 19.8769 13.8313 19.5186 13.9617C19.1806 14.0847 18.8835 14.3819 18.2891 14.9763L18.1975 15.0679L23.9325 20.803L24.0241 20.7113C24.6184 20.117 24.9156 19.8198 25.0386 19.4819C25.169 19.1235 25.169 18.7307 25.0386 18.3723C24.9156 18.0344 24.6184 17.7372 24.0241 17.1429L23.359 16.4778L24.6614 15.1754L25.3902 15.9043C25.6212 16.1352 25.9957 16.1352 26.2266 15.9043C26.4576 15.6733 26.4576 15.2988 26.2266 15.0678L23.9327 12.7738Z" fill="#FC822C"/>
<path d="M14.9119 18.3536L17.3611 15.9043L23.0961 21.6394L22.212 22.5235L19.9367 20.2481C19.7058 20.0172 19.3313 20.0172 19.1003 20.2481C18.8694 20.4791 18.8694 20.8536 19.1003 21.0845L21.3756 23.3599L20.9216 23.8139L19.6237 22.5159C19.3928 22.2849 19.0183 22.2849 18.7873 22.5159C18.5564 22.7469 18.5564 23.1214 18.7873 23.3523L20.0303 24.5953C18.6153 25.5415 16.7364 25.5019 15.3603 24.4765L13.6095 26.2274C13.3785 26.4583 13.004 26.4583 12.7731 26.2274C12.5421 25.9964 12.5421 25.6219 12.7731 25.391L14.5239 23.6401C13.341 22.0522 13.4703 19.7952 14.9119 18.3536Z" fill="#FC822C"/>
</svg>
