<svg width="24" height="24" viewBox="0 0 24 24" fill="none" xmlns="http://www.w3.org/2000/svg">
<path opacity="0.5" d="M4 15.2004C4 12.9376 4 11.8063 4.70294 11.1033C5.40589 10.4004 6.53726 10.4004 8.8 10.4004H15.2C17.4627 10.4004 18.5941 10.4004 19.2971 11.1033C20 11.8063 20 12.9376 20 15.2004C20 17.4631 20 18.5945 19.2971 19.2974C18.5941 20.0004 17.4627 20.0004 15.2 20.0004H8.8C6.53726 20.0004 5.40589 20.0004 4.70294 19.2974C4 18.5945 4 17.4631 4 15.2004Z" fill="#01B413"/>
<path d="M8.8 16.0004C9.24183 16.0004 9.6 15.6422 9.6 15.2004C9.6 14.7586 9.24183 14.4004 8.8 14.4004C8.35817 14.4004 8 14.7586 8 15.2004C8 15.6422 8.35817 16.0004 8.8 16.0004Z" fill="#01B413"/>
<path d="M12 16.0004C12.4418 16.0004 12.8 15.6422 12.8 15.2004C12.8 14.7586 12.4418 14.4004 12 14.4004C11.5582 14.4004 11.2 14.7586 11.2 15.2004C11.2 15.6422 11.5582 16.0004 12 16.0004Z" fill="#01B413"/>
<path d="M16 15.2004C16 15.6422 15.6418 16.0004 15.2 16.0004C14.7582 16.0004 14.4 15.6422 14.4 15.2004C14.4 14.7586 14.7582 14.4004 15.2 14.4004C15.6418 14.4004 16 14.7586 16 15.2004Z" fill="#01B413"/>
<path d="M7.79998 8.80039C7.79998 6.48079 9.68038 4.60039 12 4.60039C14.3196 4.60039 16.2 6.48079 16.2 8.80039V10.4033C16.6539 10.4075 17.0508 10.418 17.4 10.4441V8.80039C17.4 5.81805 14.9823 3.40039 12 3.40039C9.01764 3.40039 6.59998 5.81805 6.59998 8.80039V10.4441C6.94918 10.418 7.34608 10.4075 7.79998 10.4033V8.80039Z" fill="#01B413"/>
</svg>
