<svg width="78" height="78" viewBox="0 0 78 78" fill="none" xmlns="http://www.w3.org/2000/svg">
<circle cx="39" cy="39" r="39" fill="#FC822C" fill-opacity="0.2"/>
<mask id="mask0_2012_1422" style="mask-type:alpha" maskUnits="userSpaceOnUse" x="0" y="0" width="78" height="78">
<circle cx="39" cy="39" r="39" fill="#FC822C"/>
</mask>
<g mask="url(#mask0_2012_1422)">
<ellipse cx="38.9999" cy="68.6402" rx="29.64" ry="17.16" fill="#FC822C"/>
</g>
<circle cx="39.0001" cy="33.1504" r="14.04" fill="#FC822C"/>
<path opacity="0.5" d="M48.9998 39.6978C48.9983 41.1674 48.9871 42.4165 48.9036 43.4414C48.8067 44.6308 48.6081 45.6246 48.1636 46.45C47.9676 46.814 47.7267 47.1401 47.4334 47.4334C46.601 48.2657 45.5405 48.6428 44.1966 48.8235C42.8835 49 41.2007 49 39.0534 49H38.9466C36.7993 49 35.1165 49 33.8034 48.8235C32.4595 48.6428 31.399 48.2657 30.5666 47.4334C29.8287 46.6954 29.4476 45.777 29.245 44.6376C29.0459 43.5184 29.0095 42.1259 29.0019 40.3967C29 39.9569 29 39.4917 29 39.0009V38.9466C29 36.7993 29 35.1165 29.1765 33.8034C29.3572 32.4595 29.7343 31.399 30.5666 30.5666C31.399 29.7343 32.4595 29.3572 33.8034 29.1765C34.9711 29.0195 36.4735 29.0021 38.302 29.0002C38.6873 28.9998 39 29.3124 39 29.6977C39 30.083 38.6872 30.3952 38.3019 30.3956C36.4475 30.3976 35.0675 30.4145 33.9894 30.5594C32.8002 30.7193 32.0832 31.0234 31.5533 31.5533C31.0234 32.0832 30.7193 32.8002 30.5594 33.9894C30.3968 35.1987 30.3953 36.7877 30.3953 39C30.3953 39.2702 30.3953 39.5314 30.3957 39.7844L31.327 38.9696C32.1747 38.2278 33.4522 38.2704 34.2487 39.0668L38.2392 43.0573C38.8785 43.6966 39.8848 43.7837 40.6245 43.2639L40.9019 43.0689C41.9663 42.3209 43.4064 42.4076 44.3734 43.2779L47.0064 45.6476C47.2714 45.091 47.4288 44.3597 47.5128 43.3281C47.592 42.3561 47.6029 41.1755 47.6044 39.6979C47.6048 39.3126 47.917 39 48.3023 39C48.6876 39 49.0002 39.3125 48.9998 39.6978Z" fill="white"/>
<path fill-rule="evenodd" clip-rule="evenodd" d="M44.5 38C42.3787 38 41.318 38 40.659 37.341C40 36.682 40 35.6213 40 33.5C40 31.3787 40 30.318 40.659 29.659C41.318 29 42.3787 29 44.5 29C46.6213 29 47.682 29 48.341 29.659C49 30.318 49 31.3787 49 33.5C49 35.6213 49 36.682 48.341 37.341C47.682 38 46.6213 38 44.5 38ZM46.7121 31.2879C47.096 31.6719 47.096 32.2943 46.7121 32.6783L46.6542 32.7361C46.5984 32.7919 46.5205 32.8172 46.4428 32.8032C46.3939 32.7945 46.3225 32.7782 46.2372 32.7486C46.0668 32.6895 45.843 32.5778 45.6326 32.3674C45.4222 32.157 45.3105 31.9332 45.2514 31.7628C45.2218 31.6775 45.2055 31.6061 45.1968 31.5572C45.1828 31.4795 45.2081 31.4016 45.2639 31.3458L45.3217 31.2879C45.7057 30.904 46.3281 30.904 46.7121 31.2879ZM44.35 35.0403C44.2057 35.1846 44.1336 35.2567 44.054 35.3188C43.9602 35.392 43.8587 35.4547 43.7512 35.5059C43.6602 35.5493 43.5634 35.5816 43.3698 35.6461L42.349 35.9864C42.2537 36.0181 42.1487 35.9933 42.0777 35.9223C42.0067 35.8513 41.9819 35.7463 42.0136 35.651L42.3539 34.6302C42.4184 34.4366 42.4507 34.3398 42.4941 34.2488C42.5453 34.1413 42.608 34.0398 42.6812 33.946C42.7433 33.8664 42.8154 33.7943 42.9597 33.65L44.7585 31.8512C44.802 31.8077 44.8769 31.8276 44.8971 31.8857C44.9707 32.098 45.109 32.3742 45.3674 32.6326C45.6258 32.891 45.902 33.0293 46.1143 33.1029C46.1724 33.1231 46.1923 33.198 46.1488 33.2415L44.35 35.0403Z" fill="white"/>
</svg>
