<svg width="24" height="24" viewBox="0 0 24 24" fill="none" xmlns="http://www.w3.org/2000/svg">
<path opacity="0.5" d="M10.8296 19.7396C11.5726 20.0868 12.4274 20.0868 13.1703 19.7396C16.3573 18.2499 18.4 14.0844 18.4 10.5146C18.4 6.9167 15.5346 4 12 4C8.46535 4 5.59998 6.9167 5.59998 10.5146C5.59998 14.0844 7.64264 18.2499 10.8296 19.7396Z" fill="#B40101"/>
<path d="M11.2343 11.6172C10.5319 11.0834 9.59998 10.2215 9.59998 9.40587C9.59998 8.01947 10.92 7.50185 12 8.57283C13.0799 7.50185 14.4 8.01947 14.4 9.40586C14.4 10.2216 13.4681 11.0834 12.7657 11.6172C12.4299 11.8724 12.262 12 12 12C11.738 12 11.5701 11.8724 11.2343 11.6172Z" fill="#B40101"/>
</svg>
