<svg width="71" height="71" viewBox="0 0 71 71" fill="none" xmlns="http://www.w3.org/2000/svg">
<rect x="0.8875" y="0.8875" width="69.225" height="69.225" rx="34.6125" fill="#FEE6D5" stroke="#FC822C" stroke-width="1.775"/>
<path opacity="0.5" d="M35.5 44.375C31.3163 44.375 29.2244 44.375 27.9247 43.0753C26.625 41.7756 26.625 39.6837 26.625 35.5C26.625 31.3163 26.625 29.2244 27.9247 27.9247C29.2244 26.625 31.3163 26.625 35.5 26.625C39.6837 26.625 41.7756 26.625 43.0753 27.9247C44.375 29.2244 44.375 31.3163 44.375 35.5C44.375 39.6837 44.375 41.7756 43.0753 43.0753C41.7756 44.375 39.6837 44.375 35.5 44.375Z" fill="#FC822C"/>
<path d="M35.5 32.1719C35.8676 32.1719 36.1656 32.4699 36.1656 32.8375V34.8344H38.1625C38.5301 34.8344 38.8281 35.1324 38.8281 35.5C38.8281 35.8676 38.5301 36.1656 38.1625 36.1656H36.1656L36.1656 38.1625C36.1656 38.5301 35.8676 38.8281 35.5 38.8281C35.1324 38.8281 34.8344 38.5301 34.8344 38.1625V36.1656H32.8375C32.4699 36.1656 32.1719 35.8676 32.1719 35.5C32.1719 35.1324 32.4699 34.8344 32.8375 34.8344H34.8344L34.8344 32.8375C34.8344 32.4699 35.1324 32.1719 35.5 32.1719Z" fill="#FC822C"/>
</svg>
