<svg width="24" height="24" viewBox="0 0 24 24" fill="none" xmlns="http://www.w3.org/2000/svg">
<path opacity="0.5" d="M17.3993 9.6V10.1633C17.3993 10.8393 17.5922 11.5001 17.9537 12.0626L18.8397 13.4409C19.6489 14.6999 19.0311 16.4111 17.6237 16.8092C13.9418 17.8507 10.0582 17.8507 6.37628 16.8092C4.96882 16.4111 4.35105 14.6999 5.16027 13.4409L6.04623 12.0626C6.40776 11.5001 6.60068 10.8393 6.60068 10.1633V9.6C6.60068 6.5072 9.01803 4 12 4C14.9819 4 17.3993 6.50721 17.3993 9.6Z" fill="#B001B4"/>
<path d="M8.1947 17.2363C8.71545 18.8405 10.2223 20.0001 12 20.0001C13.7777 20.0001 15.2846 18.8405 15.8053 17.2363C13.289 17.7085 10.7111 17.7085 8.1947 17.2363Z" fill="#B001B4"/>
</svg>
